<svg width="133" height="22" viewBox="0 0 133 22" fill="none" xmlns="http://www.w3.org/2000/svg">
<path d="M30.4617 7.48242C28.9732 7.48261 27.4984 8.12234 27.6535 9.40066L28.0335 12.1792C28.1001 12.6681 28.4306 13.4499 28.924 13.4499H28.9591L29.3633 18.1108C29.3807 18.3206 29.5327 18.4908 29.7433 18.4908H31.2633C31.4738 18.4908 31.6258 18.3206 31.6433 18.1108L32.0474 13.4499H32.0827C32.5762 13.4499 32.9064 12.6681 32.9733 12.1792L33.3533 9.40066C33.4528 8.1212 31.9503 7.48204 30.4617 7.48242Z" fill="black"/>
<path d="M30.5046 12.6726L30.4955 12.6966C30.4985 12.6893 30.5006 12.6819 30.5037 12.6747L30.5046 12.6726Z" fill="black"/>
<path d="M30.5 6.99C31.6018 6.99 32.495 6.09681 32.495 4.995C32.495 3.89319 31.6018 3 30.5 3C29.3982 3 28.505 3.89319 28.505 4.995C28.505 6.09681 29.3982 6.99 30.5 6.99Z" fill="black"/>
<path d="M32.5752 16.1274C32.559 16.3121 32.5419 16.4964 32.5258 16.6811C34.2267 16.9213 35.4875 17.4662 35.63 18.1403C35.8422 19.1427 32.563 19.5938 30.4506 19.5727C28.3382 19.5514 25.1194 19.1427 25.4008 18.1401C25.5855 17.4821 26.8281 16.9481 28.4845 16.6993C28.4679 16.5141 28.4491 16.3288 28.4332 16.1438C26.304 16.3786 24.5302 16.9568 23.8215 17.7105H21.4235L21 18.5889H23.5015C23.6959 19.6225 25.8627 20.5147 28.961 20.7401L28.855 22H31.9216L31.8908 20.7403C35.0049 20.5147 37.233 19.6225 37.4985 18.5889H40L39.6371 17.7105H37.2391C36.5659 16.9378 34.76 16.3501 32.5752 16.1274Z" fill="black"/>
<path d="M12.9794 7.8196H17.9688C17.587 4.17081 14.2756 1.5696 9.97869 1.5696C5.07812 1.5696 1.10085 4.94318 1.10085 10.9446C1.10085 16.6974 4.70526 20.2486 10.0142 20.2486C14.7727 20.2486 18.1818 17.3366 18.1818 12.3651V9.84375H10.1207V13.3594H13.4233C13.3789 14.9396 12.2603 15.9517 10.0497 15.9517C7.4929 15.9517 6.17898 14.0696 6.17898 10.8736C6.17898 7.72195 7.59943 5.86648 10.0852 5.86648C11.63 5.86648 12.6776 6.5767 12.9794 7.8196Z" fill="black"/>
<path d="M53.973 7.5H58.696C58.6783 3.93111 55.9261 1.5696 51.5227 1.5696C47.1992 1.5696 44.1452 3.8956 44.1719 7.35795C44.163 10.1989 46.1339 11.7791 49.3565 12.4716L51.1676 12.8622C53.1918 13.3061 53.8842 13.8121 53.902 14.6378C53.8842 15.5344 53.0675 16.1648 51.4872 16.1648C49.5962 16.1648 48.4776 15.277 48.3977 13.608H43.7102C43.728 18.1712 46.8175 20.2131 51.5582 20.2131C56.1658 20.2131 58.9268 18.2244 58.9446 14.6378C58.9268 11.8679 57.2756 9.92365 53.2628 9.0625L51.7713 8.7429C50.049 8.37891 49.2766 7.87287 49.321 7.00284C49.3299 6.20383 49.9957 5.6179 51.5227 5.6179C53.1207 5.6179 53.8754 6.31925 53.973 7.5Z" fill="black"/>
<path d="M79.1918 10.9091H70.669V14.6023H79.1918V10.9091ZM94.4537 1.81818H89.5176V20H94.4537V1.81818ZM98.043 20H102.979V14.6023H105.713C109.859 14.6023 112.638 12.1609 112.638 8.24574C112.638 4.375 109.93 1.81818 105.891 1.81818H98.043V20ZM102.979 10.767V5.75994H104.719C106.45 5.75994 107.489 6.68324 107.489 8.24574C107.489 9.79936 106.45 10.767 104.719 10.767H102.979ZM122.695 20C128.235 20 131.75 16.5909 131.75 10.9091C131.75 5.22727 128.235 1.81818 122.624 1.81818H115.699V20H122.695ZM120.635 15.8097V6.00852H122.375C125.216 6.00852 126.779 7.10938 126.779 10.9091C126.779 14.7088 125.216 15.8097 122.517 15.8097H120.635Z" fill="black"/>
</svg>
